# xmcd CD database file
#
# Track frame offsets:
#	150
#	16789
#	31134
#	44441
#	64068
#	80624
#	99263
#	122245
#	138634
#	157287
#	172948
#	195784
#	211345
#	229306
#	245339
#	263435
#	288646
#	301747
#
# Disc length: 4284 seconds
#
# Revision: 0
# Processed by: cddbd v1.5.2PL0 Copyright (c) Steve Scherf et al.
# Submitted via: CDex 1.70beta2
#
DISCID=ee10ba12
DTITLE=Johnny Winter - Nothin' But The Blues - White, Hot and Blue
DYEAR=1900
DGENRE=Blues
TTITLE0=Tired Of Tryin'
TTITLE1=TV Mama
TTITLE2=Sweet Love And Evil Woman
TTITLE3=Everybody's Blues
TTITLE4=Drinkin' Blues
TTITLE5=Mad Blues
TTITLE6=It Was Rainin'
TTITLE7=Bladie Mae
TTITLE8=Walking Thru The Park
TTITLE9=Walking By Myself
TTITLE10=Slidin' In
TTITLE11=Divin' Duck
TTITLE12=One Step At A Time
TTITLE13=Nickel Blues
TTITLE14=E-Z Rider
TTITLE15=Last Night
TTITLE16=Messin' With The Kid
TTITLE17=Honest I Do
EXTD=
EXTT0=
EXTT1=
EXTT2=
EXTT3=
EXTT4=
EXTT5=
EXTT6=
EXTT7=
EXTT8=
EXTT9=
EXTT10=
EXTT11=
EXTT12=
EXTT13=
EXTT14=
EXTT15=
EXTT16=
EXTT17=
PLAYORDER=
